# xmcd
#
# Track frame offsets: 
#        150
#        12318
#        27177
#        63702
#        95413
#        109684
#        129556
#        146000
#
# Disc length: 2139 seconds
#
# Revision: 1
# Processed by: cddbd v1.5.2PL0 Copyright (c) Steve Scherf et al.
# Submitted via: ExactAudioCopy v1.1
#
DISCID=6b085908
DTITLE=Cuby and Blizzards - Sometimes
DYEAR=1972
DGENRE=Blues
TTITLE0=Pawn Broker
TTITLE1=Straight, No Chaser
TTITLE2=The Way I Feel
TTITLE3=I'm Drinking My Whisky
TTITLE4=Everytime
TTITLE5=Boston
TTITLE6=Sometimes
TTITLE7=Simply Jamming
EXTD=
EXTT0=
EXTT1=
EXTT2=
EXTT3=
EXTT4=
EXTT5=
EXTT6=
EXTT7=
PLAYORDER=
